<svg width="35" height="35" viewBox="0 0 35 35" fill="none" xmlns="http://www.w3.org/2000/svg">
<path d="M26.9777 10.5752L18.8876 6.64208C18.0295 6.22049 17.0177 6.27754 16.2104 6.79362L7.86232 12.1411C7.055 12.6572 6.56619 13.5618 6.57034 14.5312L6.6011 23.6251C6.60533 24.7 7.21136 25.6796 8.16295 26.1485L16.2531 30.0817C17.1112 30.5033 18.123 30.4462 18.9303 29.9301L27.2783 24.5826C28.0856 24.0665 28.5744 23.1619 28.5703 22.1925L28.5547 17.3033L28.5413 13.0987C28.5371 12.0237 27.931 11.0442 26.9812 10.5769L26.9777 10.5752Z" fill="#FAFAFA" stroke="#383E47" stroke-miterlimit="10"/>
<g opacity="0.8">
<path d="M15.5632 26.8845L9.79472 24.0792C9.20498 23.7885 8.82094 23.1683 8.81889 22.5L8.79688 15.9338" fill="#FAFAFA"/>
<path d="M15.5632 26.8845L9.79472 24.0792C9.20498 23.7885 8.82094 23.1683 8.81889 22.5L8.79688 15.9338" stroke="#383E47" stroke-width="0.8" stroke-miterlimit="10"/>
<path d="M11.0132 15.4988L15.9748 17.9402C16.5615 18.2357 16.9424 18.8543 16.9444 19.5211L16.9643 25.3037" fill="#FAFAFA"/>
<path d="M11.0132 15.4988L15.9748 17.9402C16.5615 18.2357 16.9424 18.8543 16.9444 19.5211L16.9643 25.3037" stroke="#383E47" stroke-width="0.8" stroke-miterlimit="10"/>
<path d="M8.80952 18.6476L8.79932 15.3853C8.7991 15.0927 8.99865 14.9326 9.08507 14.8766C9.17149 14.8221 9.40093 14.7069 9.66042 14.8346L11.3038 15.6425" fill="#FAFAFA"/>
<path d="M8.80952 18.6476L8.79932 15.3853C8.7991 15.0927 8.99865 14.9326 9.08507 14.8766C9.17149 14.8221 9.40093 14.7069 9.66042 14.8346L11.3038 15.6425" stroke="#383E47" stroke-width="0.8" stroke-miterlimit="10"/>
<path d="M16.9552 23.0762L16.9672 26.6502C16.9674 26.9412 16.7805 27.0933 16.7004 27.1446C16.6202 27.1958 16.4049 27.3031 16.147 27.1754L12.5142 25.4126" fill="#FAFAFA"/>
<path d="M16.9552 23.0762L16.9672 26.6502C16.9674 26.9412 16.7805 27.0933 16.7004 27.1446C16.6202 27.1958 16.4049 27.3031 16.147 27.1754L12.5142 25.4126" stroke="#383E47" stroke-width="0.8" stroke-miterlimit="10"/>
</g>
</svg>
