<svg width="20" height="20" viewBox="0 0 20 20" fill="none" xmlns="http://www.w3.org/2000/svg">
<g clip-path="url(#clip0_2079_18369)">
<path d="M10.0001 1H7.54553C5.25441 1.00001 4.10885 1.00001 3.23374 1.44589C2.46399 1.8381 1.83816 2.46394 1.44595 3.2337C1.00006 4.1088 1.00006 5.25437 1.00006 7.54551V12.4546C1.00006 14.7458 1.00006 15.8912 1.44595 16.7663C1.83816 17.5361 2.46399 18.162 3.23375 18.5541C4.10885 19 5.25441 19 7.54554 19H10.0001M10.0001 1H12.4547C14.7457 1 15.8913 1 16.7664 1.44589C17.5362 1.8381 18.1621 2.46394 18.5542 3.2337C19.0001 4.1088 19.0001 5.25437 19.0001 7.5455V12.4546C19.0001 14.7456 19.0001 15.8912 18.5542 16.7663C18.1621 17.5361 17.5362 18.162 16.7664 18.5541C15.8913 19 14.7458 19 12.4547 19H10.0001M10.0001 1V19" stroke="#1D1F20" stroke-width="1.49286" stroke-linecap="round" stroke-linejoin="round"/>
<path d="M9.99999 11.9648H2.53571" stroke="#1D1F20" stroke-width="1.49286" stroke-linecap="round" stroke-linejoin="round"/>
<path d="M17.4648 8.03613H10.0006" stroke="#1D1F20" stroke-width="1.49286" stroke-linecap="round" stroke-linejoin="round"/>
</g>
<defs>
<clipPath id="clip0_2079_18369">
<rect width="20" height="20" fill="white"/>
</clipPath>
</defs>
</svg>
