<svg width="90" height="36" viewBox="0 0 90 36" fill="none" xmlns="http://www.w3.org/2000/svg">
<g clip-path="url(#clip0_1_13564)">
<path d="M73.596 5.49365H69.8959V9.19372H73.596V5.49365Z" fill="#1D1F20"/>
<path fill-rule="evenodd" clip-rule="evenodd" d="M59.1926 14.9938H55.9433V21.0063C55.9433 21.5075 56.0678 21.8741 56.3184 22.1045C56.5689 22.3366 56.9356 22.4712 57.4166 22.5099C57.8976 22.5283 58.4964 22.52 59.2094 22.4813V25.8635C56.685 26.1527 54.8837 25.9206 53.804 25.1705C52.7444 24.4002 52.2147 23.0127 52.2147 21.008V14.9954H49.7004V11.4097H52.2147V8.49011L55.9433 7.36328V11.4114H61.7069V8.49179L65.4355 7.36496V11.4131H68.7017V14.9988H65.4355V21.0114C65.4355 21.5126 65.56 21.8792 65.8107 22.1096C66.0612 22.3417 66.4279 22.4762 66.9088 22.5149C67.3899 22.5335 67.9886 22.525 68.7 22.4863V25.8685C66.1756 26.1578 64.3743 25.9256 63.2946 25.1756C62.235 24.4053 61.7053 23.0177 61.7053 21.013V15.0005H59.191L59.1926 14.9938Z" fill="#1D1F20"/>
<path d="M73.614 11.4062H69.8854V25.8616H73.614V11.4062Z" fill="#1D1F20"/>
<path fill-rule="evenodd" clip-rule="evenodd" d="M82.3986 11.0312C78.2008 11.0312 74.7967 14.4353 74.7967 18.6348C74.7967 22.8344 78.2008 26.2384 82.3986 26.2384C86.5965 26.2384 90.0009 22.8344 90.0009 18.6348C90.0009 14.4353 86.5981 11.0312 82.3986 11.0312ZM82.3851 22.6544C80.1584 22.6544 78.3521 20.8481 78.3521 18.6214C78.3521 16.3946 80.1584 14.5883 82.3851 14.5883C84.6119 14.5883 86.4165 16.3929 86.4165 18.6214C86.4165 20.8498 84.6119 22.6544 82.3851 22.6544Z" fill="#1D1F20"/>
<path fill-rule="evenodd" clip-rule="evenodd" d="M44.8126 11.3778V12.1799C43.6471 11.4533 42.2714 11.0312 40.7965 11.0312C36.5986 11.0312 33.1945 14.4353 33.1945 18.6348C33.1945 22.8344 36.5986 26.2384 40.7965 26.2384C42.2714 26.2384 43.6471 25.8179 44.8126 25.0897V25.892H48.5127V11.3778H44.8126ZM40.783 22.6544C38.5562 22.6544 36.75 20.8481 36.75 18.6214C36.75 16.3946 38.5562 14.5883 40.783 14.5883C43.0097 14.5883 44.7773 16.3576 44.8126 18.5541V18.6869C44.7773 20.8835 42.9879 22.6527 40.783 22.6527V22.6544Z" fill="#1D1F20"/>
<path d="M26.7784 20.1257L24.518 16.508C24.518 16.508 24.5096 16.4929 24.5046 16.4861L24.3263 16.2019C23.99 15.6621 23.408 15.3392 22.7723 15.3375L19.1311 15.3257L18.8771 15.7328L14.5263 22.6955L14.2857 23.0806L16.1088 25.9936C16.4453 26.5352 17.0271 26.858 17.6679 26.858H22.7706C23.3996 26.858 23.995 26.5267 24.328 25.9953L24.5079 25.7077C24.5079 25.7077 24.5147 25.6993 24.5164 25.6959L26.78 22.0733C27.1517 21.4812 27.1517 20.716 26.78 20.1257H26.7784ZM26.0888 21.641L23.8251 25.2637C23.815 25.2805 23.8032 25.2939 23.7931 25.3074C23.7141 25.3965 23.6115 25.4083 23.5661 25.4083C23.5139 25.4083 23.3861 25.3932 23.3037 25.262L21.04 21.6394C21.0147 21.599 20.9929 21.5569 20.9727 21.5115C20.9525 21.4677 20.9374 21.4241 20.9239 21.3786C20.8735 21.197 20.8735 21.0019 20.9239 20.8203C20.9492 20.7312 20.9878 20.642 21.0383 20.5613L23.2987 16.942C23.2987 16.942 23.3021 16.937 23.3037 16.9335C23.3575 16.8528 23.4248 16.8158 23.4837 16.804C23.5073 16.7974 23.5274 16.7957 23.5443 16.7923C23.5526 16.7923 23.561 16.7923 23.5695 16.7923C23.6216 16.7923 23.7511 16.8091 23.8318 16.9403L26.0922 20.5579C26.2991 20.8875 26.2991 21.3114 26.0922 21.641H26.0888Z" fill="#1D1F20"/>
<path d="M20.0895 11.3721C20.4595 10.7783 20.4595 10.0148 20.0895 9.42447L17.8291 5.80685L17.6407 5.50243C17.3027 4.96257 16.7208 4.63965 16.0816 4.63965H10.979C10.3416 4.63965 9.75969 4.96257 9.41994 5.50412L0.282548 20.1276C0.0992286 20.4203 0 20.7584 0 21.1014C0 21.4445 0.0975465 21.7826 0.280867 22.0735L2.7313 25.9972C3.06934 26.5388 3.65126 26.86 4.28867 26.86H9.39132C10.0321 26.86 10.6141 26.5372 10.9504 25.9955L11.1371 25.6995C11.1371 25.6995 11.1371 25.6995 11.1371 25.6962L11.1405 25.6895L12.9619 22.7765L18.3605 14.137L20.0861 11.3737L20.0895 11.3721ZM19.5564 10.3983C19.5564 10.5849 19.5043 10.7733 19.3982 10.9398L10.4476 25.2656C10.3668 25.3951 10.2373 25.4103 10.1852 25.4103C10.133 25.4103 10.0052 25.3951 9.92286 25.2656L7.66075 21.6413C7.45556 21.3134 7.45556 20.8912 7.66075 20.5599L16.6115 6.23739C16.6922 6.10621 16.8217 6.09108 16.8738 6.09108C16.9259 6.09108 17.0555 6.10621 17.1379 6.23907L19.3982 9.85674C19.5043 10.0232 19.5564 10.2115 19.5564 10.3983Z" fill="#1D1F20"/>
</g>
<defs>
<clipPath id="clip0_1_13564">
<rect width="90" height="36" fill="white"/>
</clipPath>
</defs>
</svg>
